<svg xmlns="http://www.w3.org/2000/svg" width="32" height="32" viewBox="0 0 32 32">
  <g id="Group_204" data-name="Group 204" transform="translate(0.24)">
    <rect id="Rectangle_27" data-name="Rectangle 27" width="32" height="32" transform="translate(-0.24 0)" fill="#262626"/>
    <path id="Path_10" data-name="Path 10" d="M19.979,22.664l-.045.141c-.64,2.56-.73,3.155-1.408,4.352a13.059,13.059,0,0,1-1.088,1.626c-.045.058-.083.128-.179.115s-.1-.115-.115-.192A13.893,13.893,0,0,1,17,26.338c.032-1.03.16-1.382,1.491-6.97a.429.429,0,0,0-.032-.237,3.89,3.89,0,0,1-.1-2.611c.6-1.92,2.758-2.048,3.136-.474.237.973-.384,2.24-.851,4.122-.4,1.555,1.434,2.656,3,1.523,1.44-1.043,2-3.546,1.92-5.325-.211-3.533-4.09-4.3-6.554-3.162-2.822,1.28-3.462,4.806-2.189,6.4.16.2.288.333.23.538-.083.32-.154.64-.243.96a.339.339,0,0,1-.4.26.327.327,0,0,1-.1-.036,2.778,2.778,0,0,1-1.178-.883,5.567,5.567,0,0,1,.038-6.234,7.5,7.5,0,0,1,7.226-3.2,6.131,6.131,0,0,1,5.626,5.056,8.431,8.431,0,0,1-1.549,5.914c-1.83,2.272-4.8,2.426-6.176,1.03A1.63,1.63,0,0,1,19.979,22.664Z" transform="translate(-5.111 -3.938)" fill="#fff" fill-rule="evenodd"/>
  </g>
</svg>
