<svg xmlns="http://www.w3.org/2000/svg" width="32" height="32" viewBox="0 0 32 32">
  <g id="Group_207" data-name="Group 207" transform="translate(-0.24)">
    <rect id="Rectangle_30" data-name="Rectangle 30" width="32" height="32" transform="translate(0.24 0)" fill="#262626"/>
    <path id="Path_14" data-name="Path 14" d="M29.4,13.856a8.326,8.326,0,0,1-2.074.589c.333-.058.826-.64,1.018-.9a3.751,3.751,0,0,0,.691-1.28.077.077,0,0,0,0-.109h0a.129.129,0,0,0-.109,0,10.77,10.77,0,0,1-2.458.941.172.172,0,0,1-.166-.045,1.845,1.845,0,0,0-.218-.224,4.3,4.3,0,0,0-1.19-.73,4.22,4.22,0,0,0-1.811-.262,4.4,4.4,0,0,0-1.728.493,4.482,4.482,0,0,0-1.4,1.139,4.342,4.342,0,0,0-.858,1.67,4.687,4.687,0,0,0-.045,1.766c0,.1,0,.109-.083.1A13.088,13.088,0,0,1,10.54,12.7c-.1-.115-.154-.115-.237,0a4.289,4.289,0,0,0,.73,5.056c.166.16.339.314.518.454a4.1,4.1,0,0,1-1.626-.454c-.1-.064-.147,0-.154.083a2.061,2.061,0,0,0,0,.486,4.319,4.319,0,0,0,2.662,3.45,2.646,2.646,0,0,0,.544.166,4.815,4.815,0,0,1-1.6.045c-.115,0-.16.038-.115.154a4.48,4.48,0,0,0,3.354,2.81,1.268,1.268,0,0,1,.461.058h0a5.293,5.293,0,0,1-2.291,1.216,8.153,8.153,0,0,1-3.482.448H9.03c-.045,0,0,.077.051.122a7.674,7.674,0,0,0,.723.429,11.3,11.3,0,0,0,2.33.934,12.38,12.38,0,0,0,12.026-2.816c2.464-2.445,3.328-5.824,3.328-9.2,0-.134.16-.211.25-.275a8.432,8.432,0,0,0,1.638-1.7.52.52,0,0,0,.109-.307h0C29.484,13.792,29.484,13.811,29.4,13.856Z" transform="translate(-3.244 -4.256)" fill="#fff"/>
  </g>
</svg>
